<?xml version="1.0" encoding="UTF-8"?>
<svg version="1.1" xmlns="http://www.w3.org/2000/svg" width="91" height="47">
<path d="M0 0 C4.69563418 -0.02488717 9.39122919 -0.04294796 14.08691406 -0.05493164 C15.68132192 -0.05993231 17.27572525 -0.06673501 18.87011719 -0.07543945 C21.17383954 -0.0876933 23.47750078 -0.0932711 25.78125 -0.09765625 C26.48366821 -0.10281754 27.18608643 -0.10797882 27.90979004 -0.11329651 C32.69168291 -0.11382758 37.26024066 0.36850697 42 1 C44.3416684 1.07584471 46.65635892 1.04882586 49 1 C49.18175781 1.69867188 49.36351563 2.39734375 49.55078125 3.1171875 C49.80214844 4.02726563 50.05351563 4.93734375 50.3125 5.875 C50.55613281 6.77992187 50.79976563 7.68484375 51.05078125 8.6171875 C51.86669852 11.32113319 51.86669852 11.32113319 55 13 C56.65053882 17.78656257 56.65053882 17.78656257 56 21 C52.69481569 25.40438552 48.53048665 29.18459538 42.9375 30 C41.968125 30 40.99875 30 40 30 C39.505 31.485 39.505 31.485 39 33 C37.02 33 35.04 33 33 33 C35.97 33.33 38.94 33.66 42 34 C42 34.66 42 35.32 42 36 C39.79173622 36.02722517 37.58337362 36.04649729 35.375 36.0625 C33.53035156 36.07990234 33.53035156 36.07990234 31.6484375 36.09765625 C28 36 28 36 25.13720703 35.51586914 C19.95435404 34.66362257 14.74205902 34.58104625 9.5 34.375 C8.38496094 34.3234375 7.26992188 34.271875 6.12109375 34.21875 C5.03957031 34.17492188 3.95804688 34.13109375 2.84375 34.0859375 C1.86599609 34.0451709 0.88824219 34.0044043 -0.11914062 33.96240234 C-3.17240836 34.00225008 -6.00489431 34.42551253 -9 35 C-9.495 33.515 -9.495 33.515 -10 32 C-10.66 32 -11.32 32 -12 32 C-12 32.99 -12 33.98 -12 35 C-15.78187881 36.83691257 -17.94568308 37.15837626 -22 36 C-22 36.66 -22 37.32 -22 38 C-22.66 38 -23.32 38 -24 38 C-24.08724706 34.5834948 -24.14047325 31.16727687 -24.1875 27.75 C-24.21263672 26.78191406 -24.23777344 25.81382813 -24.26367188 24.81640625 C-24.27333984 23.88183594 -24.28300781 22.94726562 -24.29296875 21.984375 C-24.3086792 21.12553711 -24.32438965 20.26669922 -24.34057617 19.38183594 C-23.75519282 15.28792917 -21.28926274 13.27548832 -18.375 10.5 C-16.13817021 8.14544233 -15.34933379 7.14400411 -15 4 C-14.21625 4.20625 -13.4325 4.4125 -12.625 4.625 C-11.75875 4.74875 -10.8925 4.8725 -10 5 C-9.34 4.34 -8.68 3.68 -8 3 C-8 2.67 -8 2.34 -8 2 C-5.36 1.67 -2.72 1.34 0 1 C0 0.67 0 0.34 0 0 Z M40 3 C40.33 3.66 40.66 4.32 41 5 C41.33 4.34 41.66 3.68 42 3 C41.34 3 40.68 3 40 3 Z M-1 4 C0.79607879 6.23921842 0.79607879 6.23921842 3.2590332 6.13183594 C4.18031006 6.08317383 5.10158691 6.03451172 6.05078125 5.984375 C7.56381836 5.93410156 7.56381836 5.93410156 9.10742188 5.8828125 C11.23314917 5.7947263 13.35828022 5.69071979 15.48242188 5.5703125 C23.0860627 5.35735248 23.0860627 5.35735248 25.77490234 7.24804688 C27.10546875 8.828125 27.10546875 8.828125 29 12 C29.99 13.485 29.99 13.485 31 15 C33.95064148 15.2208564 36.68368231 15.28060989 39.625 15.1875 C40.42679688 15.17396484 41.22859375 15.16042969 42.0546875 15.14648438 C44.03674378 15.11109051 46.01845551 15.05728234 48 15 C48 14.01 48 13.02 48 12 C45.69 12 43.38 12 41 12 C40.79375 11.236875 40.5875 10.47375 40.375 9.6875 C38.45280477 5.93048205 36.99961838 5.37917875 33 4 C21.92215941 1.88273354 10.17975431 3.3419285 -1 4 Z M-9 7 C-8.67 7.66 -8.34 8.32 -8 9 C-6.68 8.01 -5.36 7.02 -4 6 C-6.9254644 5.7763932 -6.9254644 5.7763932 -9 7 Z M-11 8 C-11.33 8.99 -11.66 9.98 -12 11 C-10.68 11.66 -9.36 12.32 -8 13 C-10.97 12.67 -13.94 12.34 -17 12 C-16.67257813 12.70511719 -16.34515625 13.41023438 -16.0078125 14.13671875 C-14.91599278 17.23867167 -14.79614604 19.54006053 -14.875 22.8125 C-14.89304687 23.78832031 -14.91109375 24.76414062 -14.9296875 25.76953125 C-14.96449219 26.87361328 -14.96449219 26.87361328 -15 28 C-12.15625 29.28125 -12.15625 29.28125 -9.9375 28.3125 C-7.65654145 26.76733453 -7.15137199 25.45626025 -6 23 C-5.01 22.34 -4.02 21.68 -3 21 C-3 20.34 -3 19.68 -3 19 C-2.01 18.67 -1.02 18.34 0 18 C0 17.34 0 16.68 0 16 C0.66 15.67 1.32 15.34 2 15 C1.34 13.35 0.68 11.7 0 10 C-0.62648438 9.93941406 -1.25296875 9.87882813 -1.8984375 9.81640625 C-2.71570312 9.73261719 -3.53296875 9.64882812 -4.375 9.5625 C-5.59316406 9.44068359 -5.59316406 9.44068359 -6.8359375 9.31640625 C-9 9 -9 9 -11 8 Z M49 8 C50 10 50 10 50 10 Z M-18 13 C-17 15 -17 15 -17 15 Z M50 15 C50 15.66 50 16.32 50 17 C50.66 16.67 51.32 16.34 52 16 C51.34 15.67 50.68 15.34 50 15 Z M34 16 C34 16.33 34 16.66 34 17 C38.95 17 43.9 17 49 17 C49 16.67 49 16.34 49 16 C44.05 16 39.1 16 34 16 Z M16 26 C16 26.33 16 26.66 16 27 C18.31 27 20.62 27 23 27 C23 26.67 23 26.34 23 26 C20.69 26 18.38 26 16 26 Z M-21 29 C-20 31 -20 31 -20 31 Z M-17 30 C-17 30.66 -17 31.32 -17 32 C-16.34 31.67 -15.68 31.34 -15 31 C-15.66 30.67 -16.32 30.34 -17 30 Z M-7 31 C-3.30581799 32.231394 -0.7943739 31.64432764 3 31 C-1.46804334 28.69391311 -2.3016524 29.07247278 -7 31 Z M7 31 C7 31.33 7 31.66 7 32 C11.95 32 16.9 32 22 32 C22 31.67 22 31.34 22 31 C17.05 31 12.1 31 7 31 Z " fill="#020457" transform="translate(24,3)"/>
<path d="M0 0 C4.71393321 -0.04970487 9.4277114 -0.085863 14.1418457 -0.10986328 C15.74310974 -0.11987623 17.34435571 -0.1334906 18.94555664 -0.15087891 C21.25671876 -0.17533565 23.56763762 -0.18653029 25.87890625 -0.1953125 C26.9402755 -0.21079636 26.9402755 -0.21079636 28.02308655 -0.22659302 C32.75834265 -0.22764468 36.55316497 0.53211271 41 2 C41 3.65 41 5.3 41 7 C40.34 7.33 39.68 7.66 39 8 C38.21625 7.54625 37.4325 7.0925 36.625 6.625 C25.90622094 1.82003008 12.43310557 4.26566022 1 5 C1.68102783 4.97905273 2.36205566 4.95810547 3.0637207 4.93652344 C6.14649722 4.85342548 9.22903837 4.80136046 12.3125 4.75 C13.38435547 4.71648438 14.45621094 4.68296875 15.56054688 4.6484375 C16.58857422 4.63554688 17.61660156 4.62265625 18.67578125 4.609375 C19.62364502 4.58842773 20.57150879 4.56748047 21.5480957 4.54589844 C24 5 24 5 25.83276367 7.02441406 C26.21795166 7.67635742 26.60313965 8.32830078 27 9 C26.34257813 8.78730469 25.68515625 8.57460937 25.0078125 8.35546875 C20.94908842 7.87580136 17.67152703 9.03661797 13.875 10.3125 C13.15957031 10.53873047 12.44414063 10.76496094 11.70703125 10.99804688 C8.46472343 12.04952427 5.85154104 13.09897264 3 15 C0.8125 14.625 0.8125 14.625 -1 14 C-0.34 14 0.32 14 1 14 C0.67 12.68 0.34 11.36 0 10 C-2.97 10 -5.94 10 -9 10 C-8.01 8.68 -7.02 7.36 -6 6 C-6.66 4.68 -7.32 3.36 -8 2 C-5.36 1.67 -2.72 1.34 0 1 C0 0.67 0 0.34 0 0 Z " fill="#050355" transform="translate(24,3)"/>
<path d="M0 0 C2.24698231 2.921077 3 4.29588166 3 8 C2.29617187 8.10957031 1.59234375 8.21914063 0.8671875 8.33203125 C-18.0981594 11.30427353 -18.0981594 11.30427353 -36 18 C-36 16.02 -36 14.04 -36 12 C-35.01 12.495 -35.01 12.495 -34 13 C-31.3670715 10.96888373 -28.99956829 8.99952225 -26.765625 6.52734375 C-23.59754305 3.63221801 -20.99531095 2.58669067 -16.9375 1.25 C-15.72964844 0.84265625 -14.52179687 0.4353125 -13.27734375 0.015625 C-5.26869418 -2.46619727 -5.26869418 -2.46619727 0 0 Z " fill="#0B4086" transform="translate(52,12)"/>
<path d="M0 0 C-0.66 1.32 -1.32 2.64 -2 4 C-3.98 4 -5.96 4 -8 4 C-5.03 4.33 -2.06 4.66 1 5 C1 5.66 1 6.32 1 7 C-1.20826378 7.02722517 -3.41662638 7.04649729 -5.625 7.0625 C-7.46964844 7.07990234 -7.46964844 7.07990234 -9.3515625 7.09765625 C-13 7 -13 7 -15.86279297 6.51586914 C-21.04564596 5.66362257 -26.25794098 5.58104625 -31.5 5.375 C-32.61503906 5.3234375 -33.73007812 5.271875 -34.87890625 5.21875 C-35.96042969 5.17492188 -37.04195312 5.13109375 -38.15625 5.0859375 C-39.62288086 5.0247876 -39.62288086 5.0247876 -41.11914062 4.96240234 C-44.17240836 5.00225008 -47.00489431 5.42551253 -50 6 C-50 5.34 -50 4.68 -50 4 C-47.195261 2.76261515 -44.79629321 1.96866049 -41.75 1.5 C-40.38875 1.2525 -40.38875 1.2525 -39 1 C-38.67 0.34 -38.34 -0.32 -38 -1 C-27.85514361 -3.32680193 -8.94437418 -5.96291612 0 0 Z M-34 2 C-34 2.33 -34 2.66 -34 3 C-29.05 3 -24.1 3 -19 3 C-19 2.67 -19 2.34 -19 2 C-23.95 2 -28.9 2 -34 2 Z " fill="#0E4087" transform="translate(65,32)"/>
<path d="M0 0 C2.93847653 -0.107834 5.87301151 -0.18721916 8.8125 -0.25 C9.64587891 -0.28351562 10.47925781 -0.31703125 11.33789062 -0.3515625 C13.62620111 -0.38832251 15.74321261 -0.38495793 18 0 C20.07421875 2.015625 20.07421875 2.015625 21 4 C20.01386719 3.68095703 20.01386719 3.68095703 19.0078125 3.35546875 C14.94908842 2.87580136 11.67152703 4.03661797 7.875 5.3125 C7.15957031 5.53873047 6.44414063 5.76496094 5.70703125 5.99804688 C2.46472343 7.04952427 -0.14845896 8.09897264 -3 10 C-5.1875 9.625 -5.1875 9.625 -7 9 C-6.34 9 -5.68 9 -5 9 C-5.33 7.68 -5.66 6.36 -6 5 C-7.65 5 -9.3 5 -11 5 C-8.28817788 2.39665076 -7.10866187 2.00543309 -3.25 1.8125 C-2.1775 1.874375 -1.105 1.93625 0 2 C0 1.34 0 0.68 0 0 Z " fill="#00010D" transform="translate(30,8)"/>
<path d="M0 0 C1.134375 0.020625 2.26875 0.04125 3.4375 0.0625 C5.5625 4.6875 5.5625 4.6875 4.4375 8.0625 C3.4475 9.5475 3.4475 9.5475 2.4375 11.0625 C-1.1875 11.75 -1.1875 11.75 -4.5625 12.0625 C-5.92338895 7.97983314 -5.24648693 5.30321899 -4.5625 1.0625 C-3.5625 0.0625 -3.5625 0.0625 0 0 Z " fill="#F58611" transform="translate(69.5625,3.9375)"/>
<path d="M0 0 C1.34904419 0.0762561 1.34904419 0.0762561 2.7253418 0.15405273 C14.07972607 0.82856103 25.41754774 1.78106475 36.75 2.75 C36.75 3.41 36.75 4.07 36.75 4.75 C34.54173622 4.77722517 32.33337362 4.79649729 30.125 4.8125 C28.28035156 4.82990234 28.28035156 4.82990234 26.3984375 4.84765625 C22.75 4.75 22.75 4.75 19.88720703 4.26586914 C14.70435404 3.41362257 9.49205902 3.33104625 4.25 3.125 C2.57744141 3.04765625 2.57744141 3.04765625 0.87109375 2.96875 C-0.21042969 2.92492188 -1.29195312 2.88109375 -2.40625 2.8359375 C-3.38400391 2.7951709 -4.36175781 2.7544043 -5.36914062 2.71240234 C-8.42240836 2.75225008 -11.25489431 3.17551253 -14.25 3.75 C-14.25 3.09 -14.25 2.43 -14.25 1.75 C-9.46542949 -0.77843157 -5.22837676 -0.34379842 0 0 Z " fill="#040923" transform="translate(29.25,34.25)"/>
<path d="M0 0 C0.66 0.33 1.32 0.66 2 1 C2.08121924 2.60332791 2.13929134 4.20784026 2.1875 5.8125 C2.22230469 6.70582031 2.25710937 7.59914063 2.29296875 8.51953125 C1.95081002 11.41647515 1.24606427 12.22555028 -1 14 C-2.5625 12.375 -2.5625 12.375 -4 10 C-3.82213241 5.73117787 -2.82066016 3.18857235 0 0 Z " fill="#00000C" transform="translate(8,19)"/>
<path d="M0 0 C2.64 0.66 5.28 1.32 8 2 C5.33333333 3.33333333 2.66666667 4.66666667 0 6 C0 4.02 0 2.04 0 0 Z " fill="#19478B" transform="translate(16,24)"/>
<path d="M0 0 C0.99 0.33 1.98 0.66 3 1 C2.01 1.33 1.02 1.66 0 2 C0 1.34 0 0.68 0 0 Z " fill="#040250" transform="translate(2,13)"/>
<path d="M0 0 C0.66 0.66 1.32 1.32 2 2 C1.01 2.495 1.01 2.495 0 3 C0 2.01 0 1.02 0 0 Z " fill="#04054F" transform="translate(0,14)"/>
<path d="" fill="#000211" transform="translate(0,0)"/>
<path d="M0 0 C2 1 2 1 2 1 Z " fill="#000620" transform="translate(55,16)"/>
<path d="" fill="#00000E" transform="translate(0,0)"/>
<path d="" fill="#05024A" transform="translate(0,0)"/>
<path d="" fill="#134081" transform="translate(0,0)"/>
<path d="" fill="#113873" transform="translate(0,0)"/>
<path d="" fill="#3A5275" transform="translate(0,0)"/>
<path d="" fill="#280000" transform="translate(0,0)"/>
</svg>
